<?xml version="1.0" encoding="iso-8859-1"?>
<!-- Generator: Adobe Illustrator 19.0.0, SVG Export Plug-In . SVG Version: 6.00 Build 0)  -->
<svg version="1.1" id="Layer_1" xmlns="http://www.w3.org/2000/svg" xmlns:xlink="http://www.w3.org/1999/xlink" x="0px" y="0px"
	 viewBox="0 0 250 250" style="enable-background:new 0 0 250 250;" xml:space="preserve">
<g id="XMLID_443_">
	<path id="XMLID_444_" d="M125,120c-8.284,0-15,6.716-15,15v100c0,8.284,6.716,15,15,15s15-6.716,15-15V135
		C140,126.716,133.284,120,125,120z"/>
	<path id="XMLID_445_" d="M215,180.001h-15V135c0-36.219-25.808-66.522-60-73.491V30h55c8.284,0,15-6.716,15-15s-6.716-15-15-15H55
		c-8.284,0-15,6.716-15,15s6.716,15,15,15h55v31.509C75.808,68.478,50,98.781,50,135v45.001H35c-8.284,0-15,6.716-15,15
		c0,8.284,6.716,15,15,15h30c8.284,0,15-6.716,15-15V135c0-24.813,20.187-45,45-45s45,20.187,45,45v60.001c0,8.284,6.716,15,15,15
		h30c8.284,0,15-6.716,15-15C230,186.717,223.284,180.001,215,180.001z"/>
</g>
<g>
</g>
<g>
</g>
<g>
</g>
<g>
</g>
<g>
</g>
<g>
</g>
<g>
</g>
<g>
</g>
<g>
</g>
<g>
</g>
<g>
</g>
<g>
</g>
<g>
</g>
<g>
</g>
<g>
</g>
</svg>
